<svg xmlns="http://www.w3.org/2000/svg" viewBox="0 0 435.78 84.37"><defs><style>.cls-1{fill:#015cab;}.cls-2{fill:#faa41a;}.cls-3{fill:#fff;}</style></defs><title>Asset 1</title><g id="Layer_2" data-name="Layer 2"><g id="Layer_1-2" data-name="Layer 1"><path class="cls-1" d="M128.38.36a93,93,0,0,0-12.88.83c-2,.31-2.85.88-2.85,3v42.6A1.22,1.22,0,0,0,113.92,48h8.18a1.26,1.26,0,0,0,1.26-1.27V31.37c1.59.06,3.62.18,5.14.18,9.45,0,18.89-3.48,18.89-15.34v-.57C147.39,3.72,138,.36,128.38.36Zm8.24,15.85c0,4.31-2.48,6.41-8.12,6.41-.7,0-4.44-.07-5.14-.13V9.55c.77-.06,4.25-.18,5.14-.18,5.33,0,8.12,1.77,8.12,6.27Z"/><path class="cls-1" d="M163.94,11.2a50.4,50.4,0,0,0-11,1.34,1.4,1.4,0,0,0-1.2,1.39v5.13a1,1,0,0,0,1.14,1.15h.31c2-.19,6.47-.45,10.52-.45,3,0,4.76.76,4.76,4.38v2.28h-3.42c-10.85,0-15.6,3.3-15.6,10.71v.58c0,8.24,5.33,10.9,10.84,10.9a14,14,0,0,0,8.82-2.85v1A1.27,1.27,0,0,0,170.4,48h7.11a1.27,1.27,0,0,0,1.26-1.27V24.14C178.77,14.88,173.07,11.2,163.94,11.2Zm4.75,28.28a11.72,11.72,0,0,1-5.2,1.4c-2.66,0-4-.51-4-3.17v-.58c0-3.1,1.14-4.62,5.58-4.62h3.61Z"/><path class="cls-1" d="M202.48,11.2a13.58,13.58,0,0,0-8.56,3.05V13a1.27,1.27,0,0,0-1.26-1.27h-7.55A1.28,1.28,0,0,0,183.84,13V46.71A1.39,1.39,0,0,0,185.17,48h7.68a1.34,1.34,0,0,0,1.27-1.33V21.92a17,17,0,0,1,8.17-2.22h.51c.57,0,.95-.64.95-1.21v-6A1.27,1.27,0,0,0,202.48,11.2Z"/><path class="cls-1" d="M229.94,12.15a35.31,35.31,0,0,0-8.44-1c-8.94,0-14.77,5.71-14.77,16v5.33c0,10.33,5.83,16,14.77,16a35.31,35.31,0,0,0,8.44-1c.94-.26,1.33-.51,1.33-1.46V40.55a1.14,1.14,0,0,0-1.21-1.07h-.12a61.55,61.55,0,0,1-7.74.44c-2.85,0-5.2-1.71-5.2-7.35V27.24c0-5.64,2.35-7.35,5.2-7.35a61.55,61.55,0,0,1,7.74.44h.12a1.14,1.14,0,0,0,1.21-1.07V13.61C231.27,12.66,230.88,12.41,229.94,12.15Z"/><path class="cls-1" d="M250.28,11.2c-10.08,0-16,6.47-16,16.68v4.43c0,12.24,8.24,16.3,15.92,16.3a48.5,48.5,0,0,0,13-1.52c1.08-.26,1.33-.7,1.33-1.71V40.55c0-.69-.5-1-1.2-1h-.19c-2.54.26-8.18.57-12.17.57-5,0-6.53-3.29-6.53-6.91v-.13h20.22c.82,0,1.33-.56,1.33-1.52V27.88C265.94,18.3,260.68,11.2,250.28,11.2Zm5.65,15.54H244.39v-.26c0-4.63,2.34-7,5.83-7s5.71,2.34,5.71,7Z"/><path class="cls-1" d="M280.4,0h-7.74a1.32,1.32,0,0,0-1.33,1.26V46.71A1.38,1.38,0,0,0,272.66,48h7.74a1.28,1.28,0,0,0,1.2-1.33V1.26A1.22,1.22,0,0,0,280.4,0Z"/><path class="cls-2" d="M304.3.36a92.73,92.73,0,0,0-12.87.83c-2,.31-2.86.88-2.86,3v42.6A1.22,1.22,0,0,0,289.84,48H298a1.27,1.27,0,0,0,1.27-1.27V31.37c1.58.06,3.61.18,5.13.18,9.45,0,18.9-3.48,18.9-15.34v-.57C323.32,3.72,313.87.36,304.3.36Zm8.24,15.85c0,4.31-2.47,6.41-8.12,6.41-.69,0-4.43-.07-5.13-.13V9.55c.76-.06,4.25-.18,5.13-.18,5.33,0,8.12,1.77,8.12,6.27Z"/><path class="cls-2" d="M341.57,11.2c-10.27,0-15.91,6.41-15.91,16.49v4.44c0,10.08,5.64,16.48,15.91,16.48s15.85-6.4,15.85-16.48V27.69C357.42,17.61,351.84,11.2,341.57,11.2Zm5.65,20.93c0,5.13-2,7.79-5.65,7.79s-5.7-2.66-5.7-7.79V27.69c0-5.14,2-7.74,5.7-7.74s5.65,2.6,5.65,7.74Z"/><rect class="cls-2" x="361.48" width="10.78" height="8.43" rx="1.27" ry="1.27"/><rect class="cls-2" x="361.73" y="11.71" width="10.27" height="36.33" rx="1.27" ry="1.27"/><path class="cls-2" d="M397.3,11.2A16,16,0,0,0,387,14.5V13a1.27,1.27,0,0,0-1.26-1.27h-7.1A1.28,1.28,0,0,0,377.32,13V46.71A1.39,1.39,0,0,0,378.66,48h7.67a1.33,1.33,0,0,0,1.27-1.33v-25c2.15-1.14,4.12-2,6-2,3.87,0,4.69,1.46,4.69,5.9V46.71A1.33,1.33,0,0,0,399.52,48h7.67a1.38,1.38,0,0,0,1.33-1.33V25.6C408.52,17.61,406.49,11.2,397.3,11.2Z"/><path class="cls-2" d="M434.45,40.81h-3.11c-1.9,0-2.09-.44-2.09-3V19.38h5.2a1.27,1.27,0,0,0,1.27-1.26V13a1.27,1.27,0,0,0-1.27-1.27h-5.2V5a1.09,1.09,0,0,0-1.14-1.08h-.19l-7.74,1.33a1.35,1.35,0,0,0-1.26,1.27v5.2h-5.08A1.38,1.38,0,0,0,412.51,13v4.18a1.5,1.5,0,0,0,1.33,1.34l5.08.82V37.77c0,9,3.67,10.84,10.65,10.84a27,27,0,0,0,5-.51,1.3,1.3,0,0,0,1.21-1.27V41.89C435.78,41.19,435.27,40.81,434.45,40.81Z"/><path class="cls-1" d="M128.86,62.41a2.12,2.12,0,0,0-.62-1.29,1.66,1.66,0,0,0-1.13-.4,1.78,1.78,0,0,0-1,.27,1.67,1.67,0,0,0-.58.89l-3.84,13.18h-.05l-3.85-13.18a1.5,1.5,0,0,0-.56-.89,1.79,1.79,0,0,0-1.06-.27,1.68,1.68,0,0,0-1.13.4,2.18,2.18,0,0,0-.62,1.29l-2.45,14.48a7.39,7.39,0,0,0-.13,1c0,.76.35,1.14,1,1.14a1.32,1.32,0,0,0,.81-.22,1,1,0,0,0,.38-.74l2.1-14.48h.05l4.3,14.53a1.32,1.32,0,0,0,.43.7,1.31,1.31,0,0,0,1.42,0,1.32,1.32,0,0,0,.43-.7l4.3-14.53h0l2.1,14.48a1,1,0,0,0,.39.74,1.37,1.37,0,0,0,.8.22c.69,0,1-.38,1-1.14a6.05,6.05,0,0,0-.13-1Z"/><path class="cls-1" d="M144.14,65.27a1.09,1.09,0,0,0-.72.28,1,1,0,0,0-.32.81v.71h0a5.67,5.67,0,0,0-1.68-1.35,4.29,4.29,0,0,0-2-.45,5.43,5.43,0,0,0-2.49.56A5.53,5.53,0,0,0,135,67.36a6.8,6.8,0,0,0-1.17,2.21,8.76,8.76,0,0,0,0,5.17A6.8,6.8,0,0,0,135,77a5.53,5.53,0,0,0,1.87,1.53,5.43,5.43,0,0,0,2.49.56,4.31,4.31,0,0,0,3.67-2h0V78a1,1,0,0,0,.32.81,1.09,1.09,0,0,0,.72.28,1.12,1.12,0,0,0,.71-.28,1,1,0,0,0,.33-.81V66.36a1,1,0,0,0-.33-.81A1.12,1.12,0,0,0,144.14,65.27Zm-1.27,8.66a5.53,5.53,0,0,1-.64,1.59,3.36,3.36,0,0,1-1.15,1.16,3.21,3.21,0,0,1-1.7.43,3.15,3.15,0,0,1-1.69-.43,3.3,3.3,0,0,1-1.16-1.16,5.53,5.53,0,0,1-.64-1.59,8,8,0,0,1,0-3.55,5.53,5.53,0,0,1,.64-1.59,3.3,3.3,0,0,1,1.16-1.16,3.15,3.15,0,0,1,1.69-.43,3.21,3.21,0,0,1,1.7.43,3.36,3.36,0,0,1,1.15,1.16,5.53,5.53,0,0,1,.64,1.59,7.61,7.61,0,0,1,0,3.55Z"/><path class="cls-1" d="M158.21,77l-5.87-5.79,5.06-4a1.21,1.21,0,0,0,.55-1,1,1,0,0,0-.25-.71.9.9,0,0,0-.68-.28,2.14,2.14,0,0,0-1.27.69L150.89,70V60.54a1.21,1.21,0,0,0-.3-.87,1.19,1.19,0,0,0-1.62,0,1.21,1.21,0,0,0-.3.87V77.85a1.21,1.21,0,0,0,.3.87,1.19,1.19,0,0,0,1.62,0,1.21,1.21,0,0,0,.3-.87V72.48l5.62,5.87a5,5,0,0,0,.67.55,1.26,1.26,0,0,0,.62.14,1,1,0,0,0,.66-.26.79.79,0,0,0,.28-.63,1.34,1.34,0,0,0-.12-.58A2,2,0,0,0,158.21,77Z"/><path class="cls-1" d="M162,60.72a1.31,1.31,0,0,0-1,.4,1.34,1.34,0,0,0-.41,1,1.37,1.37,0,0,0,2.74,0,1.34,1.34,0,0,0-.41-1A1.31,1.31,0,0,0,162,60.72Z"/><path class="cls-1" d="M162,65.27a1.07,1.07,0,0,0-.81.32,1.21,1.21,0,0,0-.3.87V77.85a1.21,1.21,0,0,0,.3.87,1.19,1.19,0,0,0,1.62,0,1.21,1.21,0,0,0,.3-.87V66.46a1.21,1.21,0,0,0-.3-.87A1.07,1.07,0,0,0,162,65.27Z"/><path class="cls-1" d="M175.71,66.44a4.49,4.49,0,0,0-1.51-.89,5,5,0,0,0-3.68.15A4.41,4.41,0,0,0,168.84,67l-.05-.05v-.53a1.21,1.21,0,0,0-.3-.87,1.1,1.1,0,0,0-.81-.32,1.07,1.07,0,0,0-.81.32,1.17,1.17,0,0,0-.31.87V77.85a1.17,1.17,0,0,0,.31.87,1.07,1.07,0,0,0,.81.32,1.1,1.1,0,0,0,.81-.32,1.21,1.21,0,0,0,.3-.87V70.51a3.12,3.12,0,1,1,6.22,0v7.34a1.17,1.17,0,0,0,.31.87,1.07,1.07,0,0,0,.81.32,1.1,1.1,0,0,0,.81-.32,1.21,1.21,0,0,0,.3-.87V70.38a6,6,0,0,0-.42-2.35A4.28,4.28,0,0,0,175.71,66.44Z"/><path class="cls-1" d="M190.61,65.27a1.33,1.33,0,0,0-.85.27,1,1,0,0,0-.34.82V67h0a4.41,4.41,0,0,0-1.45-1.18,4.17,4.17,0,0,0-2-.52,5.43,5.43,0,0,0-2.49.56,5.57,5.57,0,0,0-1.88,1.53,7,7,0,0,0-1.16,2.21,8.76,8.76,0,0,0,0,5.17A7,7,0,0,0,181.58,77a5.57,5.57,0,0,0,1.88,1.53A5.43,5.43,0,0,0,186,79a4,4,0,0,0,2-.52,4.08,4.08,0,0,0,1.42-1.41h0v1.17a6.16,6.16,0,0,1-.19,1.5,4.24,4.24,0,0,1-.61,1.33,2.83,2.83,0,0,1-1.14,1,3.84,3.84,0,0,1-1.73.36,4.57,4.57,0,0,1-1.66-.28,10.45,10.45,0,0,1-1.48-.76,2.93,2.93,0,0,0-1.27-.53.79.79,0,0,0-.7.31,1.2,1.2,0,0,0-.23.73,1.18,1.18,0,0,0,.47.84,4.5,4.5,0,0,0,1.25.81,8.21,8.21,0,0,0,1.69.58,7.29,7.29,0,0,0,1.75.22A5.86,5.86,0,0,0,190,82.62a6.54,6.54,0,0,0,1.65-4.7V66.36a1,1,0,0,0-.33-.81A1.09,1.09,0,0,0,190.61,65.27Zm-1.17,8.66a5.53,5.53,0,0,1-.64,1.59,3.36,3.36,0,0,1-1.15,1.16,3.58,3.58,0,0,1-3.4,0,3.36,3.36,0,0,1-1.15-1.16,5.53,5.53,0,0,1-.64-1.59,8,8,0,0,1,0-3.55,5.53,5.53,0,0,1,.64-1.59,3.36,3.36,0,0,1,1.15-1.16,3.58,3.58,0,0,1,3.4,0,3.36,3.36,0,0,1,1.15,1.16,5.53,5.53,0,0,1,.64,1.59,8,8,0,0,1,0,3.55Z"/><path class="cls-1" d="M211.72,67.36a5.53,5.53,0,0,0-1.87-1.53,5.84,5.84,0,0,0-5,0A5.63,5.63,0,0,0,203,67.36a7,7,0,0,0-1.16,2.21,8.76,8.76,0,0,0,0,5.17A7,7,0,0,0,203,77a5.63,5.63,0,0,0,1.87,1.53A5.55,5.55,0,0,0,211.72,77a7,7,0,0,0,1.17-2.21,8.76,8.76,0,0,0,0-5.17A7,7,0,0,0,211.72,67.36Zm-.87,6.57a5.55,5.55,0,0,1-.65,1.59,3.28,3.28,0,0,1-1.15,1.16,3.56,3.56,0,0,1-3.39,0,3.28,3.28,0,0,1-1.15-1.16,5.55,5.55,0,0,1-.65-1.59,8,8,0,0,1,0-3.55,5.55,5.55,0,0,1,.65-1.59,3.28,3.28,0,0,1,1.15-1.16,3.56,3.56,0,0,1,3.39,0,3.28,3.28,0,0,1,1.15,1.16,5.55,5.55,0,0,1,.65,1.59,8,8,0,0,1,0,3.55Z"/><path class="cls-1" d="M225.26,66.44a4.59,4.59,0,0,0-1.51-.89,5.18,5.18,0,0,0-1.64-.28,5.11,5.11,0,0,0-2,.43A4.41,4.41,0,0,0,218.39,67l0-.05v-.53a1.17,1.17,0,0,0-.31-.87,1.17,1.17,0,0,0-1.61,0,1.17,1.17,0,0,0-.31.87V77.85a1.17,1.17,0,0,0,.31.87,1.17,1.17,0,0,0,1.61,0,1.17,1.17,0,0,0,.31-.87V70.51a3.12,3.12,0,1,1,6.22,0v7.34a1.17,1.17,0,0,0,.31.87,1.07,1.07,0,0,0,.81.32,1.1,1.1,0,0,0,.81-.32,1.21,1.21,0,0,0,.3-.87V70.38a6,6,0,0,0-.42-2.35A4.28,4.28,0,0,0,225.26,66.44Z"/><path class="cls-1" d="M231.35,59.35a1.07,1.07,0,0,0-.81.32,1.21,1.21,0,0,0-.3.87V77.85a1.21,1.21,0,0,0,.3.87,1.19,1.19,0,0,0,1.62,0,1.21,1.21,0,0,0,.3-.87V60.54a1.21,1.21,0,0,0-.3-.87A1.07,1.07,0,0,0,231.35,59.35Z"/><path class="cls-1" d="M237.07,60.72a1.31,1.31,0,0,0-1,.4,1.34,1.34,0,0,0-.41,1,1.36,1.36,0,1,0,1.37-1.37Z"/><path class="cls-1" d="M237.07,65.27a1.07,1.07,0,0,0-.81.32,1.21,1.21,0,0,0-.31.87V77.85a1.21,1.21,0,0,0,.31.87,1.07,1.07,0,0,0,.81.32,1.1,1.1,0,0,0,.81-.32,1.21,1.21,0,0,0,.3-.87V66.46a1.21,1.21,0,0,0-.3-.87A1.1,1.1,0,0,0,237.07,65.27Z"/><path class="cls-1" d="M250.81,66.44a4.59,4.59,0,0,0-1.51-.89,5.18,5.18,0,0,0-1.64-.28,5.11,5.11,0,0,0-2,.43A4.41,4.41,0,0,0,243.94,67l-.05-.05v-.53a1.17,1.17,0,0,0-.31-.87,1.07,1.07,0,0,0-.81-.32,1.1,1.1,0,0,0-.81.32,1.21,1.21,0,0,0-.3.87V77.85a1.21,1.21,0,0,0,.3.87,1.1,1.1,0,0,0,.81.32,1.07,1.07,0,0,0,.81-.32,1.17,1.17,0,0,0,.31-.87V70.51a3.12,3.12,0,1,1,6.22,0v7.34a1.17,1.17,0,0,0,.31.87,1.17,1.17,0,0,0,1.61,0,1.17,1.17,0,0,0,.31-.87V70.38a6,6,0,0,0-.42-2.35A4.28,4.28,0,0,0,250.81,66.44Z"/><path class="cls-1" d="M265.31,67.31a5.4,5.4,0,0,0-1.83-1.49,5.19,5.19,0,0,0-2.42-.55,5.55,5.55,0,0,0-2.49.55,5.62,5.62,0,0,0-1.92,1.5,6.84,6.84,0,0,0-1.22,2.22,8.11,8.11,0,0,0-.42,2.61,9.3,9.3,0,0,0,.37,2.61,6.47,6.47,0,0,0,1.13,2.2,5.29,5.29,0,0,0,1.93,1.52,6.4,6.4,0,0,0,2.75.56,7.06,7.06,0,0,0,1.92-.27,8.86,8.86,0,0,0,1.75-.69,5.13,5.13,0,0,0,1.25-.92,1.35,1.35,0,0,0,.47-.88,1,1,0,0,0-.24-.72.74.74,0,0,0-.57-.27,2,2,0,0,0-.94.51,8,8,0,0,1-1.57,1,4.94,4.94,0,0,1-2.05.35A3.72,3.72,0,0,1,258.32,76,4.14,4.14,0,0,1,257.24,73h8.38a1,1,0,0,0,1.24-1.19,7.27,7.27,0,0,0-.4-2.39A6.65,6.65,0,0,0,265.31,67.31Zm-8.07,4a6.05,6.05,0,0,1,.25-1.55,4.18,4.18,0,0,1,.68-1.31,3.19,3.19,0,0,1,1.16-.94,3.84,3.84,0,0,1,1.73-.35,3.16,3.16,0,0,1,2.68,1.32,4.45,4.45,0,0,1,.68,1.36,5.33,5.33,0,0,1,.21,1.47Z"/><path class="cls-1" d="M284.1,72.48a8.06,8.06,0,0,0-1.28-.74c-.45-.21-1-.44-1.67-.7a15,15,0,0,1-2.2-1,1.32,1.32,0,0,1-.71-1.13,1.42,1.42,0,0,1,.67-1.25,3,3,0,0,1,1.69-.44,3.31,3.31,0,0,1,1.36.24,5.5,5.5,0,0,1,1.07.64,5.78,5.78,0,0,0,.56.37,1.08,1.08,0,0,0,.47.11,1.05,1.05,0,0,0,.75-.26.89.89,0,0,0,.27-.65,1.37,1.37,0,0,0-.42-1,3.69,3.69,0,0,0-1.1-.76,7.56,7.56,0,0,0-1.48-.49,6.77,6.77,0,0,0-1.48-.18,5.81,5.81,0,0,0-1.67.24,4.67,4.67,0,0,0-1.48.74,3.48,3.48,0,0,0-1.05,1.21,3.33,3.33,0,0,0-.38,1.61,2.45,2.45,0,0,0,.34,1.3,3.42,3.42,0,0,0,.91,1,7.34,7.34,0,0,0,1.2.72c.42.2,1,.44,1.62.71A14.69,14.69,0,0,1,282.43,74a1.54,1.54,0,0,1,.77,1.33,1.6,1.6,0,0,1-.72,1.27,3,3,0,0,1-1.88.55,4.13,4.13,0,0,1-1.65-.29,7.63,7.63,0,0,1-1.39-.79,2.62,2.62,0,0,0-1.19-.56.84.84,0,0,0-.64.29,1,1,0,0,0-.27.72,1.4,1.4,0,0,0,.39.89,3.9,3.9,0,0,0,1.09.83,6.67,6.67,0,0,0,1.62.61,8.29,8.29,0,0,0,2,.23A5.63,5.63,0,0,0,284,78a3.61,3.61,0,0,0,1.44-3.07,2.5,2.5,0,0,0-.37-1.38A3.48,3.48,0,0,0,284.1,72.48Z"/><path class="cls-1" d="M297.29,66.44a4.59,4.59,0,0,0-1.51-.89,5.18,5.18,0,0,0-1.64-.28,5.11,5.11,0,0,0-2,.43A4.41,4.41,0,0,0,290.42,67l-.05-.05V60.54a1.21,1.21,0,0,0-.31-.87,1.07,1.07,0,0,0-.81-.32,1.08,1.08,0,0,0-.81.32,1.21,1.21,0,0,0-.3.87V77.85a1.21,1.21,0,0,0,.3.87,1.08,1.08,0,0,0,.81.32,1.07,1.07,0,0,0,.81-.32,1.21,1.21,0,0,0,.31-.87V70.51a3.12,3.12,0,1,1,6.22,0v7.34a1.21,1.21,0,0,0,.3.87,1.1,1.1,0,0,0,.81.32,1.07,1.07,0,0,0,.81-.32,1.17,1.17,0,0,0,.31-.87V70.38A6,6,0,0,0,298.4,68,4.28,4.28,0,0,0,297.29,66.44Z"/><path class="cls-1" d="M311.89,67.36A5.53,5.53,0,0,0,310,65.83a5.84,5.84,0,0,0-5,0,5.63,5.63,0,0,0-1.87,1.53A7,7,0,0,0,302,69.57a8.76,8.76,0,0,0,0,5.17A7,7,0,0,0,303.16,77,5.63,5.63,0,0,0,305,78.48,5.55,5.55,0,0,0,311.89,77a7,7,0,0,0,1.17-2.21,8.76,8.76,0,0,0,0-5.17A7,7,0,0,0,311.89,67.36ZM311,73.93a5.55,5.55,0,0,1-.65,1.59,3.28,3.28,0,0,1-1.15,1.16,3.56,3.56,0,0,1-3.39,0,3.36,3.36,0,0,1-1.15-1.16,5.26,5.26,0,0,1-.64-1.59,7.61,7.61,0,0,1,0-3.55,5.26,5.26,0,0,1,.64-1.59,3.36,3.36,0,0,1,1.15-1.16,3.56,3.56,0,0,1,3.39,0,3.28,3.28,0,0,1,1.15,1.16,5.55,5.55,0,0,1,.65,1.59,8,8,0,0,1,0,3.55Z"/><path class="cls-1" d="M326.43,67.36a5.16,5.16,0,0,0-4.23-2.09,3.68,3.68,0,0,0-3.59,1.85h-.05v-.66a1.17,1.17,0,0,0-.31-.87,1.17,1.17,0,0,0-1.61,0,1.17,1.17,0,0,0-.31.87v16.7a1.17,1.17,0,0,0,.31.87,1.17,1.17,0,0,0,1.61,0,1.17,1.17,0,0,0,.31-.87V77.22h.05a4.51,4.51,0,0,0,1.44,1.27,4.15,4.15,0,0,0,2.15.55,5.13,5.13,0,0,0,2.41-.56A5.56,5.56,0,0,0,326.43,77a7.13,7.13,0,0,0,1.14-2.21,8.92,8.92,0,0,0,.38-2.59,8.28,8.28,0,0,0-.4-2.58A7.31,7.31,0,0,0,326.43,67.36Zm-.91,6.57a5.55,5.55,0,0,1-.65,1.59,3.28,3.28,0,0,1-1.15,1.16,3.56,3.56,0,0,1-3.39,0,3.28,3.28,0,0,1-1.15-1.16,5.55,5.55,0,0,1-.65-1.59,8,8,0,0,1,0-3.55,5.55,5.55,0,0,1,.65-1.59,3.28,3.28,0,0,1,1.15-1.16,3.56,3.56,0,0,1,3.39,0,3.28,3.28,0,0,1,1.15,1.16,5.55,5.55,0,0,1,.65,1.59,8,8,0,0,1,0,3.55Z"/><path class="cls-1" d="M341,67.36a5.16,5.16,0,0,0-4.23-2.09,3.68,3.68,0,0,0-3.59,1.85h-.05v-.66a1.17,1.17,0,0,0-.31-.87,1.17,1.17,0,0,0-1.61,0,1.17,1.17,0,0,0-.31.87v16.7a1.17,1.17,0,0,0,.31.87,1.17,1.17,0,0,0,1.61,0,1.17,1.17,0,0,0,.31-.87V77.22h.05a4.51,4.51,0,0,0,1.44,1.27,4.12,4.12,0,0,0,2.15.55,5.13,5.13,0,0,0,2.41-.56A5.66,5.66,0,0,0,341,77a7.13,7.13,0,0,0,1.14-2.21,8.92,8.92,0,0,0,.38-2.59,8.59,8.59,0,0,0-.4-2.58A7.31,7.31,0,0,0,341,67.36Zm-.91,6.57a5.55,5.55,0,0,1-.65,1.59,3.28,3.28,0,0,1-1.15,1.16,3.56,3.56,0,0,1-3.39,0,3.28,3.28,0,0,1-1.15-1.16,5.55,5.55,0,0,1-.65-1.59,8,8,0,0,1,0-3.55,5.55,5.55,0,0,1,.65-1.59,3.28,3.28,0,0,1,1.15-1.16,3.56,3.56,0,0,1,3.39,0,3.28,3.28,0,0,1,1.15,1.16,5.55,5.55,0,0,1,.65,1.59,8,8,0,0,1,0,3.55Z"/><path class="cls-1" d="M346.4,60.72a1.31,1.31,0,0,0-1,.4,1.33,1.33,0,0,0-.4,1,1.37,1.37,0,0,0,2.73,0,1.33,1.33,0,0,0-.4-1A1.31,1.31,0,0,0,346.4,60.72Z"/><path class="cls-1" d="M346.4,65.27a1.07,1.07,0,0,0-.81.32,1.17,1.17,0,0,0-.31.87V77.85a1.17,1.17,0,0,0,.31.87,1.07,1.07,0,0,0,.81.32,1.1,1.1,0,0,0,.81-.32,1.21,1.21,0,0,0,.3-.87V66.46a1.21,1.21,0,0,0-.3-.87A1.1,1.1,0,0,0,346.4,65.27Z"/><path class="cls-1" d="M360.13,66.44a4.45,4.45,0,0,0-1.5-.89,5.2,5.2,0,0,0-1.65-.28,5.1,5.1,0,0,0-2,.43A4.41,4.41,0,0,0,353.27,67l-.06-.05v-.53a1.21,1.21,0,0,0-.3-.87,1.19,1.19,0,0,0-1.62,0,1.21,1.21,0,0,0-.3.87V77.85a1.21,1.21,0,0,0,.3.87,1.19,1.19,0,0,0,1.62,0,1.21,1.21,0,0,0,.3-.87V70.51A3.16,3.16,0,0,1,358.5,68a3.13,3.13,0,0,1,.94,2.48v7.34a1.21,1.21,0,0,0,.3.87,1.08,1.08,0,0,0,.81.32,1.07,1.07,0,0,0,.81-.32,1.21,1.21,0,0,0,.31-.87V70.38a6,6,0,0,0-.42-2.35A4.18,4.18,0,0,0,360.13,66.44Z"/><path class="cls-1" d="M375,65.27a1.33,1.33,0,0,0-.85.27,1,1,0,0,0-.34.82V67h0a4.27,4.27,0,0,0-1.44-1.18,4.17,4.17,0,0,0-2-.52A5.4,5.4,0,0,0,366,67.36a7,7,0,0,0-1.16,2.21,8.55,8.55,0,0,0,0,5.17A7,7,0,0,0,366,77,5.4,5.4,0,0,0,370.38,79a3.91,3.91,0,0,0,2-.52,4,4,0,0,0,1.42-1.41h0v1.17a5.71,5.71,0,0,1-.19,1.5,4,4,0,0,1-.61,1.33,2.73,2.73,0,0,1-1.13,1,3.86,3.86,0,0,1-1.74.36,4.52,4.52,0,0,1-1.65-.28,9.94,9.94,0,0,1-1.48-.76,3,3,0,0,0-1.27-.53.81.81,0,0,0-.71.31,1.26,1.26,0,0,0-.23.73,1.21,1.21,0,0,0,.47.84,4.5,4.5,0,0,0,1.25.81,8.3,8.3,0,0,0,1.7.58,7.29,7.29,0,0,0,1.75.22,5.84,5.84,0,0,0,4.41-1.73,6.5,6.5,0,0,0,1.66-4.7V66.36a1,1,0,0,0-.33-.81A1.12,1.12,0,0,0,375,65.27Zm-1.16,8.66a5.55,5.55,0,0,1-.65,1.59,3.28,3.28,0,0,1-1.15,1.16,3.56,3.56,0,0,1-3.39,0,3.28,3.28,0,0,1-1.15-1.16,5.55,5.55,0,0,1-.65-1.59,8,8,0,0,1,0-3.55,5.55,5.55,0,0,1,.65-1.59,3.28,3.28,0,0,1,1.15-1.16,3.56,3.56,0,0,1,3.39,0,3.28,3.28,0,0,1,1.15,1.16,5.55,5.55,0,0,1,.65,1.59,8,8,0,0,1,0,3.55Z"/><path class="cls-1" d="M395.93,67.31a5.49,5.49,0,0,0-1.83-1.49,5.22,5.22,0,0,0-2.42-.55,5.55,5.55,0,0,0-2.49.55,5.62,5.62,0,0,0-1.92,1.5,6.66,6.66,0,0,0-1.22,2.22,8.11,8.11,0,0,0-.42,2.61,9.3,9.3,0,0,0,.37,2.61,6.3,6.3,0,0,0,1.13,2.2,5.29,5.29,0,0,0,1.93,1.52,6.4,6.4,0,0,0,2.75.56,7.06,7.06,0,0,0,1.92-.27,8.86,8.86,0,0,0,1.75-.69,5.13,5.13,0,0,0,1.25-.92,1.35,1.35,0,0,0,.47-.88,1,1,0,0,0-.24-.72.74.74,0,0,0-.57-.27,2,2,0,0,0-.94.51,8.29,8.29,0,0,1-1.57,1,4.94,4.94,0,0,1-2.05.35A3.72,3.72,0,0,1,388.94,76,4.14,4.14,0,0,1,387.86,73h8.38a1,1,0,0,0,1.24-1.19,7.54,7.54,0,0,0-.4-2.39A6.65,6.65,0,0,0,395.93,67.31Zm-8.07,4a6.05,6.05,0,0,1,.25-1.55,4.16,4.16,0,0,1,.67-1.31,3.31,3.31,0,0,1,1.17-.94,3.84,3.84,0,0,1,1.73-.35,3.26,3.26,0,0,1,1.56.35,3.37,3.37,0,0,1,1.12,1,4.21,4.21,0,0,1,.67,1.36,5,5,0,0,1,.22,1.47Z"/><path class="cls-1" d="M410.22,65.27a1.09,1.09,0,0,0-.72.28,1,1,0,0,0-.32.81v.71h-.05a5.67,5.67,0,0,0-1.68-1.35,4.26,4.26,0,0,0-2-.45,5.46,5.46,0,0,0-2.49.56,5.53,5.53,0,0,0-1.87,1.53,7,7,0,0,0-1.17,2.21,8.76,8.76,0,0,0,0,5.17A7,7,0,0,0,401.1,77,5.53,5.53,0,0,0,403,78.48a5.46,5.46,0,0,0,2.49.56,4.31,4.31,0,0,0,3.67-2h.05V78a1,1,0,0,0,.32.81,1.09,1.09,0,0,0,.72.28,1.12,1.12,0,0,0,.71-.28,1,1,0,0,0,.33-.81V66.36a1,1,0,0,0-.33-.81A1.12,1.12,0,0,0,410.22,65.27ZM409,73.93a5.85,5.85,0,0,1-.65,1.59,3.36,3.36,0,0,1-1.15,1.16,3.56,3.56,0,0,1-3.39,0,3.28,3.28,0,0,1-1.15-1.16,5.55,5.55,0,0,1-.65-1.59,8,8,0,0,1,0-3.55,5.55,5.55,0,0,1,.65-1.59,3.28,3.28,0,0,1,1.15-1.16,3.56,3.56,0,0,1,3.39,0,3.36,3.36,0,0,1,1.15,1.16,5.85,5.85,0,0,1,.65,1.59,8,8,0,0,1,0,3.55Z"/><path class="cls-1" d="M422.45,72.48a8,8,0,0,0-1.27-.74c-.46-.21-1-.44-1.67-.7a14.46,14.46,0,0,1-2.2-1,1.3,1.3,0,0,1-.71-1.13,1.4,1.4,0,0,1,.67-1.25A2.92,2.92,0,0,1,419,67.2a3.37,3.37,0,0,1,1.37.24,5.75,5.75,0,0,1,1.06.64,5.71,5.71,0,0,0,.57.37,1,1,0,0,0,.47.11,1,1,0,0,0,.74-.26.89.89,0,0,0,.27-.65,1.37,1.37,0,0,0-.42-1,3.56,3.56,0,0,0-1.1-.76,7.34,7.34,0,0,0-1.48-.49,6.7,6.7,0,0,0-1.48-.18,5.86,5.86,0,0,0-1.67.24,4.78,4.78,0,0,0-1.48.74,3.4,3.4,0,0,0-1.43,2.82,2.45,2.45,0,0,0,.34,1.3,3.42,3.42,0,0,0,.91,1,7.34,7.34,0,0,0,1.2.72c.43.2,1,.44,1.62.71A14.69,14.69,0,0,1,420.78,74a1.55,1.55,0,0,1,.78,1.33,1.59,1.59,0,0,1-.73,1.27,3,3,0,0,1-1.88.55,4,4,0,0,1-1.64-.29,7.69,7.69,0,0,1-1.4-.79,2.57,2.57,0,0,0-1.19-.56.85.85,0,0,0-.64.29,1,1,0,0,0-.27.72,1.37,1.37,0,0,0,.4.89,3.84,3.84,0,0,0,1.08.83,7,7,0,0,0,1.62.61,8.29,8.29,0,0,0,2,.23A5.63,5.63,0,0,0,422.34,78a3.61,3.61,0,0,0,1.44-3.07,2.58,2.58,0,0,0-.36-1.38A3.65,3.65,0,0,0,422.45,72.48Z"/><path class="cls-1" d="M435.44,65.54a1.08,1.08,0,0,0-1.77.57l-3,9.23h-.05l-3.09-9.23a1.25,1.25,0,0,0-.41-.61,1.13,1.13,0,0,0-.7-.23,1.05,1.05,0,0,0-.71.27.86.86,0,0,0-.3.67,1.85,1.85,0,0,0,.06.44c0,.16.12.43.24.8l3.8,11-1.42,3.77c-.13.36-.22.62-.26.79a1.6,1.6,0,0,0-.07.45.82.82,0,0,0,.31.67,1,1,0,0,0,.7.27,1.1,1.1,0,0,0,1.09-.84l5.62-16.06c.12-.37.2-.64.24-.8a1.85,1.85,0,0,0,.06-.44A.86.86,0,0,0,435.44,65.54Z"/><path class="cls-1" d="M25.65,25.75a23.35,23.35,0,1,0,33,0A23.36,23.36,0,0,0,25.65,25.75Z"/><path class="cls-2" d="M38.89,57h6.53a5.06,5.06,0,0,0,5.06-5.06V45.36h4.33a1.54,1.54,0,0,0,.44,0,2.53,2.53,0,0,0,2.09-2.49,2.49,2.49,0,0,0-.65-1.69,1.92,1.92,0,0,0-.35-.33L44.07,26.23a3.39,3.39,0,0,0-3.83,0L28,40.82a1.58,1.58,0,0,0-.37.35A2.48,2.48,0,0,0,27,42.83a2.53,2.53,0,0,0,2.09,2.49,1.54,1.54,0,0,0,.44,0h4.33V51.9A5.06,5.06,0,0,0,38.89,57Z"/><path class="cls-2" d="M40.26,15.09V.06H10.76A10.76,10.76,0,0,0,0,10.82v29.5H15A27.19,27.19,0,0,1,40.26,15.09Z"/><path class="cls-2" d="M73.55.06H44.05v15A27.19,27.19,0,0,1,69.28,40.32h15V10.82A10.76,10.76,0,0,0,73.55.06Z"/><path class="cls-2" d="M15,44.11H0v29.5A10.76,10.76,0,0,0,10.76,84.37h29.5v-15A27.19,27.19,0,0,1,15,44.11Z"/><path class="cls-2" d="M44.05,69.34v15h29.5A10.76,10.76,0,0,0,84.31,73.61V44.11h-15A27.19,27.19,0,0,1,44.05,69.34Z"/><path class="cls-3" d="M45.42,58.87H38.89a7,7,0,0,1-7-7V47.26H29.5a3.51,3.51,0,0,1-.85-.08A4.42,4.42,0,0,1,26.08,40a3.11,3.11,0,0,1,.54-.56L38.79,25a1.77,1.77,0,0,1,.31-.3,5.27,5.27,0,0,1,6.11,0,2.27,2.27,0,0,1,.32.3L57.67,39.44a3.33,3.33,0,0,1,.5.49,4.43,4.43,0,0,1-2.51,7.25,3.51,3.51,0,0,1-.85.08H52.39V51.9A7,7,0,0,1,45.42,58.87Zm-16-15.42h4.4a1.91,1.91,0,0,1,1.9,1.91V51.9a3.17,3.17,0,0,0,3.16,3.16h6.53a3.17,3.17,0,0,0,3.16-3.16V45.36a1.91,1.91,0,0,1,1.9-1.91h4.33s0,0-.09,0l.2-.05a.62.62,0,0,0,.52-.61.63.63,0,0,0-.16-.42.08.08,0,0,1,0,0,3.81,3.81,0,0,1-.36-.33L42.8,27.67a1.67,1.67,0,0,0-1.28,0L29.42,42.05a2.81,2.81,0,0,1-.31.29l0,0,0,.05a.61.61,0,0,0,.36,1Zm.06,0,.09,0Zm25.66-1.21Z"/></g></g></svg>